<?xml version="1.0" standalone="no"?>
<svg xmlns:xlink="http://www.w3.org/1999/xlink" id="wave" style="transform:rotate(0deg); transition: 0.3s" viewBox="0 0 1440 490" version="1.1" xmlns="http://www.w3.org/2000/svg"><defs><linearGradient id="sw-gradient-0" x1="0" x2="0" y1="1" y2="0"><stop stop-color="rgba(0, 81.032, 243.982, 0.31)" offset="0%"/><stop stop-color="rgba(19.246, 0, 109.326, 0.45)" offset="100%"/></linearGradient></defs><path style="transform:translate(0, 0px); opacity:1" fill="url(#sw-gradient-0)" d="M0,196L480,343L960,196L1440,343L1920,441L2400,0L2880,441L3360,98L3840,0L4320,98L4800,245L5280,0L5760,0L6240,245L6720,49L7200,147L7680,0L8160,196L8640,343L9120,98L9600,294L10080,343L10560,343L11040,0L11520,0L11520,490L11040,490L10560,490L10080,490L9600,490L9120,490L8640,490L8160,490L7680,490L7200,490L6720,490L6240,490L5760,490L5280,490L4800,490L4320,490L3840,490L3360,490L2880,490L2400,490L1920,490L1440,490L960,490L480,490L0,490Z"/></svg>